<svg xmlns="http://www.w3.org/2000/svg" viewBox="0 0 300 230" role="img" aria-label="capybara sticker">
  <defs>
    <filter id="shadow" x="-30%" y="-30%" width="160%" height="160%"><feDropShadow dx="0" dy="12" stdDeviation="10" flood-color="#7c6a58" flood-opacity=".22"/></filter>
  </defs>
  <g filter="url(#shadow)">
    <path d="M52 143c0-43 35-79 78-79h64c43 0 78 36 78 79s-35 79-78 79h-64c-43 0-78-36-78-79z" fill="#fff" stroke="#fff" stroke-width="24"/>
    <path d="M6 141c0-37 30-67 67-67h56c37 0 67 30 67 67s-30 67-67 67H73c-37 0-67-30-67-67z" fill="#fff" stroke="#fff" stroke-width="24"/>
    <ellipse cx="171" cy="143" rx="94" ry="59" fill="#b48663"/>
    <ellipse cx="82" cy="138" rx="63" ry="55" fill="#b48663"/>
    <circle cx="57" cy="91" r="17" fill="#946344"/>
    <circle cx="108" cy="91" r="17" fill="#946344"/>
    <circle cx="62" cy="134" r="7" fill="#2d2420"/>
    <ellipse cx="80" cy="157" rx="17" ry="11" fill="#6f4d39"/>
    <path d="M102 164c18 11 42 11 59 0" fill="none" stroke="#6f4d39" stroke-width="7" stroke-linecap="round"/>
    <rect x="93" y="184" width="22" height="39" rx="9" fill="#8d6045"/>
    <rect x="186" y="184" width="22" height="39" rx="9" fill="#8d6045"/>
    <ellipse cx="213" cy="117" rx="66" ry="41" fill="#c09672"/>
    <ellipse cx="262" cy="110" rx="36" ry="31" fill="#c09672"/>
    <circle cx="244" cy="82" r="11" fill="#946344"/>
    <circle cx="276" cy="85" r="10" fill="#946344"/>
    <circle cx="253" cy="110" r="5" fill="#2d2420"/>
    <ellipse cx="267" cy="126" rx="11" ry="7" fill="#6f4d39"/>
    <path d="M229 54c16 0 27 12 28 27-12-8-23-8-35 0 1-15 4-27 7-27z" fill="#f1c6d5"/>
    <path d="M215 70c11-8 24-8 36 8-14 2-25-1-36-8z" fill="#e89fb7"/>
    <path d="M110 48c15 1 26 13 26 29-12-8-23-9-34-1 0-16 4-28 8-28z" fill="#f1c6d5"/>
    <path d="M93 65c12-8 25-6 36 9-13 2-25-1-36-9z" fill="#e89fb7"/>
  </g>
</svg>
